<svg xmlns="http://www.w3.org/2000/svg" viewBox="0 0 64 64" role="img" aria-label="Veterinary favicon">
  <defs>
    <linearGradient id="bg" x1="0" x2="1" y1="0" y2="1">
      <stop offset="0%" stop-color="#10b981" />
      <stop offset="100%" stop-color="#14b8a6" />
    </linearGradient>
  </defs>
  <rect x="4" y="4" width="56" height="56" rx="14" fill="url(#bg)" />
  <g fill="#ffffff">
    <circle cx="20" cy="24" r="5" />
    <circle cx="32" cy="20" r="5" />
    <circle cx="44" cy="24" r="5" />
    <path d="M32 29c-8.5 0-14 6.6-14 12.2c0 4.2 3 7.8 7.3 7.8c2.2 0 4.1-1.1 5.5-2.9c0.5-0.6 1.3-0.6 1.8 0c1.4 1.8 3.3 2.9 5.5 2.9c4.3 0 7.3-3.6 7.3-7.8C46 35.6 40.5 29 32 29z" />
  </g>
</svg>
